REM DIRINDEX 1\2\4\8,1\2\4\9,1\2\4\10,1\2\5\11,1\2\5\12,1\2\5\13,1\2\5\14,1\2\5\15,1\3\6\16,1\3\6\17,1\3\6\18,1\3\7\19,1\3\7\20,1\3\7\21,1\3\7\22,1\3\7\23
REM DIRNAME "folder01","folder02","folder03","folder04","folder05","folder06","folder07","folder08","folder09","folder10","folder11","folder12","folder13","folder14","folder15","folder16","folder17","folder18","folder19","folder20","folder21","folder22","folder23"
TITLE ""
FILE "LR_black_phrase_S10.mp3" MP3
  TRACK 01 AUDIO
    TITLE "0:"
    INDEX 01 00:00:00
  TRACK 02 AUDIO
    TITLE "19:cjc171_15901"
    INDEX 01 00:00:14
  TRACK 03 AUDIO
    TITLE "0:"
    INDEX 01 00:01:53
  TRACK 04 AUDIO
    TITLE "20:cjc171_15902"
    INDEX 01 00:02:17
  TRACK 05 AUDIO
    TITLE "0:"
    INDEX 01 00:05:04
  TRACK 06 AUDIO
    TITLE "21:cjc171_15903"
    INDEX 01 00:06:03
  TRACK 07 AUDIO
    TITLE "0:"
    INDEX 01 00:08:06
  TRACK 08 AUDIO
    TITLE "22:cjc171_15904"
    INDEX 01 00:08:47
  TRACK 09 AUDIO
    TITLE "0:"
    INDEX 01 00:10:60
  TRACK 10 AUDIO
    TITLE "23:cjc171_15905"
    INDEX 01 00:11:14
  TRACK 11 AUDIO
    TITLE "0:"
    INDEX 01 00:13:27
  TRACK 12 AUDIO
    TITLE "19:cjc171_15906"
    INDEX 01 00:14:32
  TRACK 13 AUDIO
    TITLE "0:"
    INDEX 01 00:15:49
  TRACK 14 AUDIO
    TITLE "20:cjc171_15907"
    INDEX 01 00:16:15
  TRACK 15 AUDIO
    TITLE "0:"
    INDEX 01 00:17:64
  TRACK 16 AUDIO
    TITLE "21:cjc171_15908"
    INDEX 01 00:18:61
  TRACK 17 AUDIO
    TITLE "0:"
    INDEX 01 00:21:28
  TRACK 18 AUDIO
    TITLE "22:cjc171_15909"
    INDEX 01 00:21:67
  TRACK 19 AUDIO
    TITLE "0:"
    INDEX 01 00:24:25
  TRACK 20 AUDIO
    TITLE "23:cjc171_15910"
    INDEX 01 00:24:54
  TRACK 21 AUDIO
    TITLE "0:"
    INDEX 01 00:27:11
  TRACK 22 AUDIO
    TITLE "19:cjc171_15911"
    INDEX 01 00:28:18
  TRACK 23 AUDIO
    TITLE "0:"
    INDEX 01 00:29:67
  TRACK 24 AUDIO
    TITLE "20:cjc171_15912"
    INDEX 01 00:30:25
  TRACK 25 AUDIO
    TITLE "0:"
    INDEX 01 00:33:33
  TRACK 26 AUDIO
    TITLE "21:cjc171_15913"
    INDEX 01 00:34:29
  TRACK 27 AUDIO
    TITLE "0:"
    INDEX 01 00:36:55
  TRACK 28 AUDIO
    TITLE "22:cjc171_15914"
    INDEX 01 00:37:13
  TRACK 29 AUDIO
    TITLE "0:"
    INDEX 01 00:39:42
  TRACK 30 AUDIO
    TITLE "23:cjc171_15915"
    INDEX 01 00:39:59
  TRACK 31 AUDIO
    TITLE "0:"
    INDEX 01 00:42:11
  TRACK 32 AUDIO
    TITLE "19:cjc171_15916"
    INDEX 01 00:43:04
  TRACK 33 AUDIO
    TITLE "0:"
    INDEX 01 00:44:27
  TRACK 34 AUDIO
    TITLE "20:cjc171_15917"
    INDEX 01 00:44:66
  TRACK 35 AUDIO
    TITLE "0:"
    INDEX 01 00:48:09
  TRACK 36 AUDIO
    TITLE "21:cjc171_15918"
    INDEX 01 00:49:07
  TRACK 37 AUDIO
    TITLE "0:"
    INDEX 01 00:51:51
  TRACK 38 AUDIO
    TITLE "22:cjc171_15919"
    INDEX 01 00:52:13
  TRACK 39 AUDIO
    TITLE "0:"
    INDEX 01 00:54:39
  TRACK 40 AUDIO
    TITLE "23:cjc171_15920"
    INDEX 01 00:54:59
  TRACK 41 AUDIO
    TITLE "0:"
    INDEX 01 00:57:14
  TRACK 42 AUDIO
    TITLE "19:cjc171_15921"
    INDEX 01 00:58:16
  TRACK 43 AUDIO
    TITLE "0:"
    INDEX 01 00:59:29
  TRACK 44 AUDIO
    TITLE "20:cjc171_15922"
    INDEX 01 00:59:68
  TRACK 45 AUDIO
    TITLE "0:"
    INDEX 01 01:02:39
  TRACK 46 AUDIO
    TITLE "21:cjc171_15923"
    INDEX 01 01:03:32
  TRACK 47 AUDIO
    TITLE "0:"
    INDEX 01 01:05:43
  TRACK 48 AUDIO
    TITLE "22:cjc171_15924"
    INDEX 01 01:06:07
  TRACK 49 AUDIO
    TITLE "0:"
    INDEX 01 01:08:30
  TRACK 50 AUDIO
    TITLE "23:cjc171_15925"
    INDEX 01 01:08:59
  TRACK 51 AUDIO
    TITLE "0:"
    INDEX 01 01:11:08
  TRACK 52 AUDIO
    TITLE "19:cjc171_15926"
    INDEX 01 01:12:12
  TRACK 53 AUDIO
    TITLE "0:"
    INDEX 01 01:13:37
  TRACK 54 AUDIO
    TITLE "20:cjc171_15927"
    INDEX 01 01:13:74
  TRACK 55 AUDIO
    TITLE "0:"
    INDEX 01 01:16:72
  TRACK 56 AUDIO
    TITLE "21:cjc171_15928"
    INDEX 01 01:17:70
  TRACK 57 AUDIO
    TITLE "0:"
    INDEX 01 01:19:73
  TRACK 58 AUDIO
    TITLE "22:cjc171_15929"
    INDEX 01 01:20:37
  TRACK 59 AUDIO
    TITLE "0:"
    INDEX 01 01:22:42
  TRACK 60 AUDIO
    TITLE "23:cjc171_15930"
    INDEX 01 01:22:73
  TRACK 61 AUDIO
    TITLE "0:"
    INDEX 01 01:25:03
  TRACK 62 AUDIO
    TITLE "19:cjc171_15931"
    INDEX 01 01:26:08
  TRACK 63 AUDIO
    TITLE "0:"
    INDEX 01 01:27:13
  TRACK 64 AUDIO
    TITLE "20:cjc171_15932"
    INDEX 01 01:27:49
  TRACK 65 AUDIO
    TITLE "0:"
    INDEX 01 01:30:02
  TRACK 66 AUDIO
    TITLE "21:cjc171_15933"
    INDEX 01 01:31:03
  TRACK 67 AUDIO
    TITLE "0:"
    INDEX 01 01:32:65
  TRACK 68 AUDIO
    TITLE "22:cjc171_15934"
    INDEX 01 01:33:26
  TRACK 69 AUDIO
    TITLE "0:"
    INDEX 01 01:35:01
  TRACK 70 AUDIO
    TITLE "23:cjc171_15935"
    INDEX 01 01:35:23
  TRACK 71 AUDIO
    TITLE "0:"
    INDEX 01 01:36:73
  TRACK 72 AUDIO
    TITLE "19:cjc171_15936"
    INDEX 01 01:37:70
  TRACK 73 AUDIO
    TITLE "0:"
    INDEX 01 01:39:15
  TRACK 74 AUDIO
    TITLE "20:cjc171_15937"
    INDEX 01 01:39:54
  TRACK 75 AUDIO
    TITLE "0:"
    INDEX 01 01:42:44
  TRACK 76 AUDIO
    TITLE "21:cjc171_15938"
    INDEX 01 01:43:46
  TRACK 77 AUDIO
    TITLE "0:"
    INDEX 01 01:46:28
  TRACK 78 AUDIO
    TITLE "22:cjc171_15939"
    INDEX 01 01:46:62
  TRACK 79 AUDIO
    TITLE "0:"
    INDEX 01 01:48:60
  TRACK 80 AUDIO
    TITLE "23:cjc171_15940"
    INDEX 01 01:49:07
  TRACK 81 AUDIO
    TITLE "0:"
    INDEX 01 01:51:06
  TRACK 82 AUDIO
    TITLE "19:cjc171_15941"
    INDEX 01 01:52:07
  TRACK 83 AUDIO
    TITLE "0:"
    INDEX 01 01:53:34
  TRACK 84 AUDIO
    TITLE "20:cjc171_15942"
    INDEX 01 01:54:00
  TRACK 85 AUDIO
    TITLE "0:"
    INDEX 01 01:55:45
  TRACK 86 AUDIO
    TITLE "21:cjc171_15943"
    INDEX 01 01:56:44
  TRACK 87 AUDIO
    TITLE "0:"
    INDEX 01 01:59:07
  TRACK 88 AUDIO
    TITLE "22:cjc171_15944"
    INDEX 01 01:59:47
  TRACK 89 AUDIO
    TITLE "0:"
    INDEX 01 02:02:19
  TRACK 90 AUDIO
    TITLE "23:cjc171_15945"
    INDEX 01 02:02:49
  TRACK 91 AUDIO
    TITLE "0:"
    INDEX 01 02:05:22
  TRACK 92 AUDIO
    TITLE "19:cjc171_15946"
    INDEX 01 02:06:27
  TRACK 93 AUDIO
    TITLE "0:"
    INDEX 01 02:07:46
  TRACK 94 AUDIO
    TITLE "20:cjc171_15947"
    INDEX 01 02:08:04
  TRACK 95 AUDIO
    TITLE "0:"
    INDEX 01 02:12:49
  TRACK 96 AUDIO
    TITLE "21:cjc171_15948"
    INDEX 01 02:13:49
  TRACK 97 AUDIO
    TITLE "0:"
    INDEX 01 02:16:24
  TRACK 98 AUDIO
    TITLE "22:cjc171_15949"
    INDEX 01 02:16:63
  TRACK 99 AUDIO
    TITLE "0:"
    INDEX 01 02:19:24
  TRACK 100 AUDIO
    TITLE "23:cjc171_15950"
    INDEX 01 02:19:55
  TRACK 101 AUDIO
    TITLE "0:"
    INDEX 01 02:22:16
  TRACK 102 AUDIO
    TITLE "19:cjc171_15951"
    INDEX 01 02:23:28
  TRACK 103 AUDIO
    TITLE "0:"
    INDEX 01 02:24:47
  TRACK 104 AUDIO
    TITLE "20:cjc171_15952"
    INDEX 01 02:25:07
  TRACK 105 AUDIO
    TITLE "0:"
    INDEX 01 02:27:63
  TRACK 106 AUDIO
    TITLE "21:cjc171_15953"
    INDEX 01 02:28:62
  TRACK 107 AUDIO
    TITLE "0:"
    INDEX 01 02:31:15
  TRACK 108 AUDIO
    TITLE "22:cjc171_15954"
    INDEX 01 02:31:51
  TRACK 109 AUDIO
    TITLE "0:"
    INDEX 01 02:34:14
  TRACK 110 AUDIO
    TITLE "23:cjc171_15955"
    INDEX 01 02:34:35
  TRACK 111 AUDIO
    TITLE "0:"
    INDEX 01 02:36:73
  TRACK 112 AUDIO
    TITLE "19:cjc171_15956"
    INDEX 01 02:37:71
  TRACK 113 AUDIO
    TITLE "0:"
    INDEX 01 02:39:11
  TRACK 114 AUDIO
    TITLE "20:cjc171_15957"
    INDEX 01 02:39:44
  TRACK 115 AUDIO
    TITLE "0:"
    INDEX 01 02:42:03
  TRACK 116 AUDIO
    TITLE "21:cjc171_15958"
    INDEX 01 02:43:05
  TRACK 117 AUDIO
    TITLE "0:"
    INDEX 01 02:44:73
  TRACK 118 AUDIO
    TITLE "22:cjc171_15959"
    INDEX 01 02:45:37
  TRACK 119 AUDIO
    TITLE "0:"
    INDEX 01 02:47:34
  TRACK 120 AUDIO
    TITLE "23:cjc171_15960"
    INDEX 01 02:47:57
  TRACK 121 AUDIO
    TITLE "0:"
    INDEX 01 02:49:52
  TRACK 122 AUDIO
    TITLE "19:cjc171_15961"
    INDEX 01 02:50:60
  TRACK 123 AUDIO
    TITLE "0:"
    INDEX 01 02:52:04
  TRACK 124 AUDIO
    TITLE "20:cjc171_15962"
    INDEX 01 02:52:43
  TRACK 125 AUDIO
    TITLE "0:"
    INDEX 01 02:53:70
  TRACK 126 AUDIO
    TITLE "21:cjc171_15963"
    INDEX 01 02:54:67
  TRACK 127 AUDIO
    TITLE "0:"
    INDEX 01 02:56:47
  TRACK 128 AUDIO
    TITLE "22:cjc171_15964"
    INDEX 01 02:57:11
  TRACK 129 AUDIO
    TITLE "0:"
    INDEX 01 02:59:25
  TRACK 130 AUDIO
    TITLE "23:cjc171_15965"
    INDEX 01 02:59:57
  TRACK 131 AUDIO
    TITLE "0:"
    INDEX 01 03:01:73
  TRACK 132 AUDIO
    TITLE "19:cjc171_15966"
    INDEX 01 03:03:05
  TRACK 133 AUDIO
    TITLE "0:"
    INDEX 01 03:04:28
  TRACK 134 AUDIO
    TITLE "20:cjc171_15967"
    INDEX 01 03:04:70
  TRACK 135 AUDIO
    TITLE "0:"
    INDEX 01 03:08:63
  TRACK 136 AUDIO
    TITLE "21:cjc171_15968"
    INDEX 01 03:09:63
  TRACK 137 AUDIO
    TITLE "0:"
    INDEX 01 03:12:28
  TRACK 138 AUDIO
    TITLE "22:cjc171_15969"
    INDEX 01 03:12:69
  TRACK 139 AUDIO
    TITLE "0:"
    INDEX 01 03:15:46
  TRACK 140 AUDIO
    TITLE "23:cjc171_15970"
    INDEX 01 03:16:00
  TRACK 141 AUDIO
    TITLE "0:"
    INDEX 01 03:18:50
  TRACK 142 AUDIO
    TITLE "19:cjc171_15971"
    INDEX 01 03:19:50
  TRACK 143 AUDIO
    TITLE "0:"
    INDEX 01 03:20:61
  TRACK 144 AUDIO
    TITLE "20:cjc171_15972"
    INDEX 01 03:21:21
  TRACK 145 AUDIO
    TITLE "0:"
    INDEX 01 03:25:09
  TRACK 146 AUDIO
    TITLE "21:cjc171_15973"
    INDEX 01 03:26:07
  TRACK 147 AUDIO
    TITLE "0:"
    INDEX 01 03:28:33
  TRACK 148 AUDIO
    TITLE "22:cjc171_15974"
    INDEX 01 03:28:64
  TRACK 149 AUDIO
    TITLE "0:"
    INDEX 01 03:30:55
  TRACK 150 AUDIO
    TITLE "23:cjc171_15975"
    INDEX 01 03:31:00
  TRACK 151 AUDIO
    TITLE "0:"
    INDEX 01 03:32:66
  TRACK 152 AUDIO
    TITLE "19:cjc171_15976"
    INDEX 01 03:33:59
  TRACK 153 AUDIO
    TITLE "0:"
    INDEX 01 03:35:03
  TRACK 154 AUDIO
    TITLE "20:cjc171_15977"
    INDEX 01 03:35:37
  TRACK 155 AUDIO
    TITLE "0:"
    INDEX 01 03:38:12
  TRACK 156 AUDIO
    TITLE "21:cjc171_15978"
    INDEX 01 03:39:09
  TRACK 157 AUDIO
    TITLE "0:"
    INDEX 01 03:40:52
  TRACK 158 AUDIO
    TITLE "22:cjc171_15979"
    INDEX 01 03:41:12
  TRACK 159 AUDIO
    TITLE "0:"
    INDEX 01 03:42:66
  TRACK 160 AUDIO
    TITLE "23:cjc171_15980"
    INDEX 01 03:43:15
  TRACK 161 AUDIO
    TITLE "0:"
    INDEX 01 03:44:69
  TRACK 162 AUDIO
    TITLE "19:cjc171_15981"
    INDEX 01 03:45:72
  TRACK 163 AUDIO
    TITLE "0:"
    INDEX 01 03:47:32
  TRACK 164 AUDIO
    TITLE "20:cjc171_15982"
    INDEX 01 03:47:69
  TRACK 165 AUDIO
    TITLE "0:"
    INDEX 01 03:49:41
  TRACK 166 AUDIO
    TITLE "21:cjc171_15983"
    INDEX 01 03:50:32
  TRACK 167 AUDIO
    TITLE "0:"
    INDEX 01 03:52:37
  TRACK 168 AUDIO
    TITLE "22:cjc171_15984"
    INDEX 01 03:52:74
  TRACK 169 AUDIO
    TITLE "0:"
    INDEX 01 03:55:67
  TRACK 170 AUDIO
    TITLE "23:cjc171_15985"
    INDEX 01 03:56:19
  TRACK 171 AUDIO
    TITLE "0:"
    INDEX 01 03:59:12
  TRACK 172 AUDIO
    TITLE "19:cjc171_15986"
    INDEX 01 04:00:15
  TRACK 173 AUDIO
    TITLE "0:"
    INDEX 01 04:01:28
  TRACK 174 AUDIO
    TITLE "20:cjc171_15987"
    INDEX 01 04:01:68
  TRACK 175 AUDIO
    TITLE "0:"
    INDEX 01 04:04:15
  TRACK 176 AUDIO
    TITLE "21:cjc171_15988"
    INDEX 01 04:05:09
  TRACK 177 AUDIO
    TITLE "0:"
    INDEX 01 04:06:67
  TRACK 178 AUDIO
    TITLE "22:cjc171_15989"
    INDEX 01 04:07:31
  TRACK 179 AUDIO
    TITLE "0:"
    INDEX 01 04:09:16
  TRACK 180 AUDIO
    TITLE "23:cjc171_15990"
    INDEX 01 04:09:47
  TRACK 181 AUDIO
    TITLE "0:"
    INDEX 01 04:11:35
  TRACK 182 AUDIO
    TITLE "19:cjc171_15991"
    INDEX 01 04:12:34
  TRACK 183 AUDIO
    TITLE "0:"
    INDEX 01 04:13:33
  TRACK 184 AUDIO
    TITLE "20:cjc171_15992"
    INDEX 01 04:14:06
  TRACK 185 AUDIO
    TITLE "0:"
    INDEX 01 04:17:04
  TRACK 186 AUDIO
    TITLE "21:cjc171_15993"
    INDEX 01 04:18:01
  TRACK 187 AUDIO
    TITLE "0:"
    INDEX 01 04:20:06
  TRACK 188 AUDIO
    TITLE "22:cjc171_15994"
    INDEX 01 04:20:39
  TRACK 189 AUDIO
    TITLE "0:"
    INDEX 01 04:22:03
  TRACK 190 AUDIO
    TITLE "23:cjc171_15995"
    INDEX 01 04:22:29
  TRACK 191 AUDIO
    TITLE "0:"
    INDEX 01 04:23:65
  TRACK 192 AUDIO
    TITLE "19:cjc171_15996"
    INDEX 01 04:24:67
  TRACK 193 AUDIO
    TITLE "0:"
    INDEX 01 04:26:01
  TRACK 194 AUDIO
    TITLE "20:cjc171_15997"
    INDEX 01 04:26:38
  TRACK 195 AUDIO
    TITLE "0:"
    INDEX 01 04:29:13
  TRACK 196 AUDIO
    TITLE "21:cjc171_15998"
    INDEX 01 04:30:10
  TRACK 197 AUDIO
    TITLE "0:"
    INDEX 01 04:32:35
  TRACK 198 AUDIO
    TITLE "22:cjc171_15999"
    INDEX 01 04:32:70
  TRACK 199 AUDIO
    TITLE "0:"
    INDEX 01 04:35:23
  TRACK 200 AUDIO
    TITLE "23:cjc171_16000"
    INDEX 01 04:35:47
  TRACK 201 AUDIO
    TITLE "0:"
    INDEX 01 04:38:02
